<?xml version="1.0" encoding="UTF-8" standalone="no"?>
<!DOCTYPE svg PUBLIC "-//W3C//DTD SVG 1.1//EN"
 "http://www.w3.org/Graphics/SVG/1.1/DTD/svg11.dtd">
<!-- Generated by graphviz version 12.2.1 (0)
 -->
<!-- Title: deps Pages: 1 -->
<svg width="371pt" height="260pt"
 viewBox="0.00 0.00 370.75 260.00" xmlns="http://www.w3.org/2000/svg" xmlns:xlink="http://www.w3.org/1999/xlink">
<g id="graph0" class="graph" transform="scale(1 1) rotate(0) translate(4 256)">
<title>deps</title>
<polygon fill="white" stroke="none" points="-4,4 -4,-256 366.75,-256 366.75,4 -4,4"/>
<!-- api -->
<g id="node1" class="node">
<title>api</title>
<polygon fill="none" stroke="black" points="225.5,-252 171.5,-252 171.5,-216 225.5,-216 225.5,-252"/>
<text text-anchor="middle" x="198.5" y="-229.32" font-family="Times,serif" font-size="14.00">api</text>
</g>
<!-- generator&#45;common -->
<g id="node2" class="node">
<title>generator&#45;common</title>
<polygon fill="none" stroke="black" points="151,-180 0,-180 0,-144 151,-144 151,-180"/>
<text text-anchor="middle" x="75.5" y="-157.32" font-family="Times,serif" font-size="14.00">generator&#45;common</text>
</g>
<!-- api&#45;&gt;generator&#45;common -->
<g id="edge1" class="edge">
<title>api&#45;&gt;generator&#45;common</title>
<path fill="none" stroke="black" d="M171.2,-217.46C155.03,-208.26 134.24,-196.43 116.17,-186.15"/>
<polygon fill="black" stroke="black" points="117.92,-183.11 107.5,-181.21 114.46,-189.2 117.92,-183.11"/>
</g>
<!-- functions -->
<g id="node4" class="node">
<title>functions</title>
<polygon fill="none" stroke="black" points="258.5,-36 176.5,-36 176.5,0 258.5,0 258.5,-36"/>
<text text-anchor="middle" x="217.5" y="-13.32" font-family="Times,serif" font-size="14.00">functions</text>
</g>
<!-- api&#45;&gt;functions -->
<g id="edge3" class="edge">
<title>api&#45;&gt;functions</title>
<path fill="none" stroke="black" d="M200.02,-215.85C203.28,-179.14 210.96,-92.66 214.97,-47.53"/>
<polygon fill="black" stroke="black" points="218.44,-48.01 215.84,-37.74 211.47,-47.39 218.44,-48.01"/>
</g>
<!-- calculator -->
<g id="node5" class="node">
<title>calculator</title>
<polygon fill="none" stroke="black" points="362.75,-36 276.25,-36 276.25,0 362.75,0 362.75,-36"/>
<text text-anchor="middle" x="319.5" y="-13.32" font-family="Times,serif" font-size="14.00">calculator</text>
</g>
<!-- api&#45;&gt;calculator -->
<g id="edge4" class="edge">
<title>api&#45;&gt;calculator</title>
<path fill="none" stroke="black" d="M208.2,-215.85C229.17,-178.75 278.9,-90.81 304.18,-46.1"/>
<polygon fill="black" stroke="black" points="307.14,-47.98 309.01,-37.55 301.04,-44.53 307.14,-47.98"/>
</g>
<!-- recursion -->
<g id="node6" class="node">
<title>recursion</title>
<polygon fill="none" stroke="black" points="150.25,-36 66.75,-36 66.75,0 150.25,0 150.25,-36"/>
<text text-anchor="middle" x="108.5" y="-13.32" font-family="Times,serif" font-size="14.00">recursion</text>
</g>
<!-- api&#45;&gt;recursion -->
<g id="edge5" class="edge">
<title>api&#45;&gt;recursion</title>
<path fill="none" stroke="black" d="M197.48,-215.94C195.02,-185.33 186.84,-119.79 160.5,-72 154.85,-61.76 146.67,-52.11 138.47,-43.94"/>
<polygon fill="black" stroke="black" points="141.13,-41.63 131.45,-37.31 136.32,-46.72 141.13,-41.63"/>
</g>
<!-- generator -->
<g id="node3" class="node">
<title>generator</title>
<polygon fill="none" stroke="black" points="151.75,-108 65.25,-108 65.25,-72 151.75,-72 151.75,-108"/>
<text text-anchor="middle" x="108.5" y="-85.33" font-family="Times,serif" font-size="14.00">generator</text>
</g>
<!-- generator&#45;common&#45;&gt;generator -->
<g id="edge2" class="edge">
<title>generator&#45;common&#45;&gt;generator</title>
<path fill="none" stroke="black" d="M83.66,-143.7C87.25,-136.07 91.57,-126.92 95.58,-118.4"/>
<polygon fill="black" stroke="black" points="98.69,-120.01 99.79,-109.47 92.36,-117.03 98.69,-120.01"/>
</g>
<!-- generator&#45;common&#45;&gt;recursion -->
<g id="edge6" class="edge">
<title>generator&#45;common&#45;&gt;recursion</title>
<path fill="none" stroke="black" d="M65.94,-143.74C57.12,-125.4 46.76,-95.84 56.5,-72 60.77,-61.55 68.2,-52.05 76.14,-44.07"/>
<polygon fill="black" stroke="black" points="78.42,-46.72 83.37,-37.35 73.66,-41.59 78.42,-46.72"/>
</g>
<!-- generator&#45;&gt;recursion -->
</g>
</svg>
